<?xml version="1.0" encoding="utf-8"?>
<!-- Generator: Adobe Illustrator 18.0.0, SVG Export Plug-In . SVG Version: 6.00 Build 0)  -->
<!DOCTYPE svg PUBLIC "-//W3C//DTD SVG 1.1//EN" "http://www.w3.org/Graphics/SVG/1.1/DTD/svg11.dtd">
<!--<svg version="1.1" id="Layer_1" xmlns="http://www.w3.org/2000/svg" xmlns:xlink="http://www.w3.org/1999/xlink" x="0px" y="0px"
     viewBox="0 0 1536 1792" enable-background="new 0 0 1536 1792" xml:space="preserve">
<path fill="#42526E" d="M1280 960v-128q0-26-19-45t-45-19h-502l189-189q19-19 19-45t-19-45l-91-91q-18-18-45-18t-45 18l-362 362-91 91q-18 18-18 45t18 45l91 91 362 362q18 18 45 18t45-18l91-91q18-18 18-45t-18-45l-189-189h502q26 0 45-19t19-45zM1536 896q0 209-103 385.5t-279.5 279.5-385.5 103-385.5-103-279.5-279.5-103-385.5 103-385.5 279.5-279.5 385.5-103 385.5 103 279.5 279.5 103 385.5z"/>
</svg>-->

<svg width="24" height="24" viewBox="0 0 24 24" fill="#42526E" xmlns="http://www.w3.org/2000/svg">
    <path fill-rule="evenodd" clip-rule="evenodd" d="M22 12C22 17.5228 17.5228 22 12 22C6.47715 22 2 17.5228 2 12C2 6.47715 6.47715 2 12 2C17.5228 2 22 6.47715 22 12ZM10.414 10.995H16C16.552 10.995 17 11.445 17 12C17 12.555 16.552 13.005 16 13.005H10.414L11.686 14.284C11.8732 14.4731 11.9782 14.7284 11.9782 14.9945C11.9782 15.2606 11.8732 15.5159 11.686 15.705C11.5932 15.7981 11.483 15.872 11.3616 15.9224C11.2401 15.9728 11.11 15.9987 10.9785 15.9987C10.8471 15.9987 10.7169 15.9728 10.5955 15.9224C10.4741 15.872 10.3638 15.7981 10.271 15.705L7.29303 12.712C7.10525 12.5228 6.99988 12.2671 6.99988 12.0005C6.99988 11.734 7.10525 11.4782 7.29303 11.289L10.271 8.29502C10.3636 8.20156 10.4738 8.12738 10.5953 8.07675C10.7167 8.02613 10.847 8.00006 10.9785 8.00006C11.1101 8.00006 11.2404 8.02613 11.3618 8.07675C11.4832 8.12738 11.5934 8.20156 11.686 8.29502C11.8732 8.48412 11.9782 8.73945 11.9782 9.00552C11.9782 9.27159 11.8732 9.52691 11.686 9.71602L10.414 10.995Z" fill="#42526E"/>
</svg>