<?xml version="1.0" encoding="utf-8"?>
<!-- Generator: Adobe Illustrator 18.0.0, SVG Export Plug-In . SVG Version: 6.00 Build 0)  -->
<!DOCTYPE svg PUBLIC "-//W3C//DTD SVG 1.1//EN" "http://www.w3.org/Graphics/SVG/1.1/DTD/svg11.dtd">
<svg version="1.1" id="Layer_1" xmlns="http://www.w3.org/2000/svg" xmlns:xlink="http://www.w3.org/1999/xlink" x="0px" y="0px"
	 viewBox="0 0 20 17.2" enable-background="new 0 0 20 17.2" xml:space="preserve">
<path fill="#666666" d="M18.7,5.5h-16l2.6,2.6c0.2,0.2,0.2,0.6,0,0.8C5.2,9.1,5.1,9.1,4.9,9.1C4.8,9.1,4.6,9.1,4.5,9L0.9,5.4
	c-0.2-0.2-0.2-0.6,0-0.8L4.5,1c0.2-0.2,0.6-0.2,0.8,0c0.2,0.2,0.2,0.6,0,0.8L2.7,4.4h16c0.3,0,0.6,0.3,0.6,0.6
	C19.3,5.3,19,5.5,18.7,5.5L18.7,5.5z M18.4,13l-3.6,3.6c-0.1,0.1-0.3,0.2-0.4,0.2c-0.1,0-0.3-0.1-0.4-0.2c-0.2-0.2-0.2-0.6,0-0.8
	l2.6-2.6h-16c-0.3,0-0.6-0.3-0.6-0.6c0-0.3,0.3-0.6,0.6-0.6h16L14,9.4c-0.2-0.2-0.2-0.6,0-0.8c0.2-0.2,0.6-0.2,0.8,0l3.6,3.6
	C18.6,12.4,18.6,12.8,18.4,13L18.4,13z"/>
</svg>
