<?xml version="1.0" encoding="utf-8"?>
<!-- Generator: Adobe Illustrator 18.0.0, SVG Export Plug-In . SVG Version: 6.00 Build 0)  -->
<!DOCTYPE svg PUBLIC "-//W3C//DTD SVG 1.1//EN" "http://www.w3.org/Graphics/SVG/1.1/DTD/svg11.dtd">
<svg version="1.1" id="Layer_1" xmlns="http://www.w3.org/2000/svg" xmlns:xlink="http://www.w3.org/1999/xlink" x="0px" y="0px"
	 viewBox="0 0 649.1 459.2" enable-background="new 0 0 649.1 459.2" xml:space="preserve">
<path fill="#666666" d="M554.8,243.8H127.7l69.4,69.4c5.3,5.3,5.3,16,0,21.4c-2.7,5.3-5.3,5.3-10.7,5.3c-2.7,0-8,0-10.7-2.7
	l-96.1-96.1c-5.3-5.3-5.3-16,0-21.4l96.1-96.1c5.3-5.3,16-5.3,21.4,0c5.3,5.3,5.3,16,0,21.4l-69.4,69.4h427.2c8,0,16,8,16,16
	C570.9,238.5,562.8,243.8,554.8,243.8L554.8,243.8z"/>
</svg>
