<?xml version="1.0" encoding="utf-8"?>
<!-- Generator: Adobe Illustrator 18.0.0, SVG Export Plug-In . SVG Version: 6.00 Build 0)  -->
<!DOCTYPE svg PUBLIC "-//W3C//DTD SVG 1.1//EN" "http://www.w3.org/Graphics/SVG/1.1/DTD/svg11.dtd">
<svg version="1.1" id="Layer_1" xmlns="http://www.w3.org/2000/svg" xmlns:xlink="http://www.w3.org/1999/xlink" x="0px" y="0px"
	 viewBox="0 0 649.1 459.2" enable-background="new 0 0 649.1 459.2" xml:space="preserve">
<path fill="#666666" d="M91.6,243.8c-8,0-16-5.3-16-13.3c0-8,8-16,16-16h427.2l-69.4-69.4c-5.3-5.3-5.3-16,0-21.4
	c5.3-5.3,16-5.3,21.4,0l96.1,96.1c5.3,5.3,5.3,16,0,21.4l-96.1,96.1c-2.7,2.7-8,2.7-10.7,2.7c-5.3,0-8,0-10.7-5.3
	c-5.3-5.3-5.3-16,0-21.4l69.4-69.4H91.6L91.6,243.8z"/>
</svg>
