<?xml version="1.0"?>
<svg width="17" height="48" xmlns="http://www.w3.org/2000/svg">
 <!-- Created with Method Draw - http://github.com/duopixel/Method-Draw/ -->

 <g>
  <title>background</title>
  <rect fill="#fff" id="canvas_background" height="50" width="19" y="-1" x="-1"/>
  <g display="none" overflow="visible" y="0" x="0" height="100%" width="100%" id="canvasGrid">
   <rect fill="url(#gridpattern)" stroke-width="0" y="0" x="0" height="100%" width="100%"/>
  </g>
 </g>
 <g>
  <title>Layer 1</title>
  <g id="svg_8">
   <g transform="matrix(0.3810394629711169,0,0,0.3810394629711169,0,0) " id="svg_5">
    <path id="svg_6" d="m33.263775,91.685982l-20.800049,0c-1.399963,0 -2.599974,0.5 -3.699951,1.5c-1,1 -1.499999,2.299988 -1.499999,3.700012l0,18.199959c0,1.400024 0.5,2.600037 1.499999,3.700012c1,1 2.299988,1.5 3.699951,1.5l20.900024,0c1.400024,0 2.599976,-0.5 3.700012,-1.5c1,-1 1.5,-2.299988 1.5,-3.700012l0,-18.199959c0,-1.400024 -0.5,-2.600037 -1.5,-3.700012c-1.100037,-1 -2.400024,-1.5 -3.799988,-1.5z" fill="#888888"/>
    <path id="svg_7" d="m39.563763,7.185983c-1,-1 -2.200012,-1.5 -3.600037,-1.5l-26.099974,0c-1.400026,0 -2.599977,0.5 -3.599977,1.5c-1,1 -1.5,2.299988 -1.400024,3.699981l2.299987,62.600013c0.100037,1.400024 0.600037,2.599968 1.700013,3.700005c1.099977,1 2.299987,1.5 3.700013,1.5l20.899961,0c1.400024,0 2.600037,-0.5 3.700012,-1.5c1.100037,-1 1.600037,-2.29998 1.700012,-3.700005l2.299988,-62.600013c-0.200012,-1.499999 -0.599976,-2.699981 -1.599976,-3.699981z" fill="#888888"/>
   </g>
  </g>
 </g>
</svg>