<?xml version="1.0" encoding="utf-8"?>
<!-- Generator: Adobe Illustrator 18.0.0, SVG Export Plug-In . SVG Version: 6.00 Build 0)  -->
<!DOCTYPE svg PUBLIC "-//W3C//DTD SVG 1.1//EN" "http://www.w3.org/Graphics/SVG/1.1/DTD/svg11.dtd">
<svg version="1.1" id="Layer_1" xmlns="http://www.w3.org/2000/svg" xmlns:xlink="http://www.w3.org/1999/xlink" x="0px" y="0px"
	 viewBox="0 0 79 79" enable-background="new 0 0 79 79" xml:space="preserve">
<path fill="#333333" d="M7.2,78.6c-2,0.8-4.2,0.4-5.7-1.1C0,76-0.4,73.7,0.4,71.8l8-19.1l17.9,17.9L7.2,78.6L7.2,78.6z M77.5,21.8
	l-44,44c0,0,0,0,0,0L13.2,45.5c0,0,0,0,0,0l44-44c2-2,5.3-2,7.4,0l12.9,12.9C79.5,16.5,79.5,19.8,77.5,21.8L77.5,21.8z"/>
</svg>
