<?xml version="1.0" encoding="utf-8"?>
<!-- Generator: Adobe Illustrator 18.0.0, SVG Export Plug-In . SVG Version: 6.00 Build 0)  -->
<!DOCTYPE svg PUBLIC "-//W3C//DTD SVG 1.1//EN" "http://www.w3.org/Graphics/SVG/1.1/DTD/svg11.dtd">
<svg version="1.1" id="Capa_1" xmlns="http://www.w3.org/2000/svg" xmlns:xlink="http://www.w3.org/1999/xlink" x="0px" y="0px"
	 viewBox="0 0 31.8 31.8" enable-background="new 0 0 31.8 31.8" xml:space="preserve">
<g>
	<path d="M30.9,9.3c0.6-0.5,0.9-1.3,0.9-2c0-0.8-0.3-1.5-0.9-2l-3.8-3.7c-0.5-0.5-1.3-0.8-2-0.8c-0.7,0-1.5,0.3-2,0.9L16,9L8.9,1.6
		C8.3,1,7.5,0.6,6.7,0.6c-0.8,0-1.6,0.3-2.2,0.8L0.9,5C0.3,5.6,0,6.3,0,7.1c0,0.8,0.3,1.5,0.9,2l7.7,7.4l-6.9,7
		c-1,1.1-1.1,2.8-0.1,3.9l2.7,2.9c0.5,0.6,1.2,0.9,2,0.9c0.8,0,1.5-0.2,2-0.8l7.5-7l7.3,7c0.5,0.5,1.3,0.8,2,0.8
		c0.8,0,1.5-0.3,2-0.9l2.7-2.9c1-1.1,1-2.8,0-3.9l-6.7-7L30.9,9.3z"/>
</g>
</svg>
