<?xml version="1.0" encoding="utf-8"?>
<!-- Generator: Adobe Illustrator 18.0.0, SVG Export Plug-In . SVG Version: 6.00 Build 0)  -->
<!DOCTYPE svg PUBLIC "-//W3C//DTD SVG 1.1//EN" "http://www.w3.org/Graphics/SVG/1.1/DTD/svg11.dtd">
<svg version="1.1" id="film" xmlns="http://www.w3.org/2000/svg" xmlns:xlink="http://www.w3.org/1999/xlink" x="0px" y="0px"
	 viewBox="0 0 30 28" enable-background="new 0 0 30 28" xml:space="preserve">
<path fill="#326CA6" d="M6 25v-2c0-0.547-0.453-1-1-1h-2c-0.547 0-1 0.453-1 1v2c0 0.547 0.453 1 1 1h2c0.547 0 1-0.453 1-1zM6 19v-2c0-0.547-0.453-1-1-1h-2c-0.547 0-1 0.453-1 1v2c0 0.547 0.453 1 1 1h2c0.547 0 1-0.453 1-1zM6 13v-2c0-0.547-0.453-1-1-1h-2c-0.547 0-1 0.453-1 1v2c0 0.547 0.453 1 1 1h2c0.547 0 1-0.453 1-1zM22 25v-8c0-0.547-0.453-1-1-1h-12c-0.547 0-1 0.453-1 1v8c0 0.547 0.453 1 1 1h12c0.547 0 1-0.453 1-1zM6 7v-2c0-0.547-0.453-1-1-1h-2c-0.547 0-1 0.453-1 1v2c0 0.547 0.453 1 1 1h2c0.547 0 1-0.453 1-1zM28 25v-2c0-0.547-0.453-1-1-1h-2c-0.547 0-1 0.453-1 1v2c0 0.547 0.453 1 1 1h2c0.547 0 1-0.453 1-1zM22 13v-8c0-0.547-0.453-1-1-1h-12c-0.547 0-1 0.453-1 1v8c0 0.547 0.453 1 1 1h12c0.547 0 1-0.453 1-1zM28 19v-2c0-0.547-0.453-1-1-1h-2c-0.547 0-1 0.453-1 1v2c0 0.547 0.453 1 1 1h2c0.547 0 1-0.453 1-1zM28 13v-2c0-0.547-0.453-1-1-1h-2c-0.547 0-1 0.453-1 1v2c0 0.547 0.453 1 1 1h2c0.547 0 1-0.453 1-1zM28 7v-2c0-0.547-0.453-1-1-1h-2c-0.547 0-1 0.453-1 1v2c0 0.547 0.453 1 1 1h2c0.547 0 1-0.453 1-1zM30 4.5v21c0 1.375-1.125 2.5-2.5 2.5h-25c-1.375 0-2.5-1.125-2.5-2.5v-21c0-1.375 1.125-2.5 2.5-2.5h25c1.375 0 2.5 1.125 2.5 2.5z"></path>
</svg>