<?xml version="1.0" encoding="utf-8"?>
<!-- Generated by IcoMoon.io -->
<!DOCTYPE svg PUBLIC "-//W3C//DTD SVG 1.1//EN" "http://www.w3.org/Graphics/SVG/1.1/DTD/svg11.dtd">
<svg version="1.1" xmlns="http://www.w3.org/2000/svg" xmlns:xlink="http://www.w3.org/1999/xlink" viewBox="0 0 724 1024"><g id="icomoon-ignore">
</g>
<path d="M400.979 1022.923h-113.932c-36.394 0-62.098-25.864-62.098-62.098v-399.039h-20.693c-36.394 0-62.098-25.864-62.098-62.098v-113.932c0-36.394 25.864-62.098 62.098-62.098h196.803c36.394 0 62.098 25.864 62.098 62.098v569.873c0 41.608-25.864 67.356-62.098 67.356v0zM343.806 256.331c-67.356 0-119.221-51.962-119.221-119.221s51.962-119.221 119.221-119.221c67.356 0 119.221 51.962 119.221 119.221s-51.962 119.221-119.221 119.221v0z" fill="white"></path>
</svg>
