<?xml version="1.0" encoding="iso-8859-1"?>
<!-- Generator: Adobe Illustrator 18.0.0, SVG Export Plug-In . SVG Version: 6.00 Build 0)  -->
<!DOCTYPE svg PUBLIC "-//W3C//DTD SVG 1.1//EN" "http://www.w3.org/Graphics/SVG/1.1/DTD/svg11.dtd">
<svg version="1.1" id="Layer_1" xmlns="http://www.w3.org/2000/svg" xmlns:xlink="http://www.w3.org/1999/xlink" x="0px" y="0px"
	 viewBox="0 0 24.325 24.328" style="enable-background:new 0 0 24.325 24.328;" xml:space="preserve">
<path d="M19.61,17.194c0.666-0.985,1.138-2.116,1.366-3.326h3.348v-0.002V10.46h-3.35c-0.232-1.218-0.7-2.343-1.366-3.327
	L21.97,4.77l-2.412-2.413L17.194,4.72c-0.982-0.67-2.113-1.138-3.327-1.372V0h-3.408v3.348C9.244,3.585,8.116,4.049,7.134,4.72
	L4.77,2.356l-2.415,2.41L4.72,7.133C4.053,8.117,3.583,9.24,3.352,10.46H0v3.409h3.352c0.235,1.21,0.703,2.34,1.368,3.326
	L2.355,19.56l2.415,2.41l2.361-2.366c0.985,0.668,2.113,1.141,3.327,1.374v3.35h3.412v-3.35c1.21-0.233,2.343-0.706,3.327-1.371
	l2.364,2.363l2.412-2.41L19.61,17.194z M12.162,15.88c-2.052,0-3.718-1.668-3.718-3.72c0-2.055,1.666-3.718,3.718-3.718
	c2.053,0,3.721,1.663,3.721,3.718C15.883,14.213,14.215,15.88,12.162,15.88z"/>
</svg>
